<svg xmlns="http://www.w3.org/2000/svg" xmlns:xlink="http://www.w3.org/1999/xlink" version="1.1" width="256" height="256" viewBox="0 0 256 256" xml:space="preserve">

<defs>
</defs>
<g style="stroke: none; stroke-width: 0; stroke-dasharray: none; stroke-linecap: butt; stroke-linejoin: miter; stroke-miterlimit: 10; fill: none; fill-rule: nonzero; opacity: 1;" transform="translate(1.4065934065934016 1.4065934065934016) scale(2.81 2.81)" >
	<path d="M 0 45 c 0 18.993 11.772 35.226 28.413 41.83 l 7.549 -2.384 l -17.541 -5.711 l 17.541 -5.539 l -17.541 -5.711 l 17.541 -5.539 l -17.541 -5.711 l 17.541 -5.539 l -17.541 -5.711 l 17.541 -5.539 l -17.541 -5.711 l 17.541 -5.539 l -17.541 -5.711 l 17.541 -5.539 l -17.541 -5.711 l 17.541 -5.539 l -7.688 -2.472 C 11.707 9.864 0 26.06 0 45 z" style="stroke: none; stroke-width: 1; stroke-dasharray: none; stroke-linecap: butt; stroke-linejoin: miter; stroke-miterlimit: 10; fill: rgb(243,244,245); fill-rule: nonzero; opacity: 1;" transform=" matrix(1 0 0 1 0 0) " stroke-linecap="round" />
	<path d="M 20.846 7.04" style="stroke: none; stroke-width: 1; stroke-dasharray: none; stroke-linecap: butt; stroke-linejoin: miter; stroke-miterlimit: 10; fill: rgb(225,0,17); fill-rule: nonzero; opacity: 1;" transform=" matrix(1 0 0 1 0 0) " stroke-linecap="round" />
	<path d="M 28.412 86.83" style="stroke: none; stroke-width: 1; stroke-dasharray: none; stroke-linecap: butt; stroke-linejoin: miter; stroke-miterlimit: 10; fill: rgb(225,0,17); fill-rule: nonzero; opacity: 1;" transform=" matrix(1 0 0 1 0 0) " stroke-linecap="round" />
	<path d="M 28.249 3.236 v 0.002 c 0.01 -0.004 0.02 -0.008 0.03 -0.012 l -0.003 -0.001 C 28.266 3.228 28.258 3.232 28.249 3.236 z" style="stroke: none; stroke-width: 1; stroke-dasharray: none; stroke-linecap: butt; stroke-linejoin: miter; stroke-miterlimit: 10; fill: rgb(225,0,17); fill-rule: nonzero; opacity: 1;" transform=" matrix(1 0 0 1 0 0) " stroke-linecap="round" />
	<path d="M 45 0 c -5.912 0 -11.552 1.15 -16.721 3.225 l 7.684 2.471 l -17.541 5.539 l 17.541 5.711 l -17.541 5.539 l 17.541 5.711 l -17.541 5.539 l 17.541 5.711 l -17.541 5.539 l 17.541 5.711 l -17.541 5.539 l 17.541 5.711 l -17.541 5.539 l 17.541 5.711 l -17.541 5.539 l 17.541 5.711 l -7.549 2.384 C 33.548 88.868 39.14 90 45 90 c 24.853 0 45 -20.147 45 -45 C 90 20.147 69.853 0 45 0 z" style="stroke: none; stroke-width: 1; stroke-dasharray: none; stroke-linecap: butt; stroke-linejoin: miter; stroke-miterlimit: 10; fill: rgb(225,0,17); fill-rule: nonzero; opacity: 1;" transform=" matrix(1 0 0 1 0 0) " stroke-linecap="round" />
</g>
</svg>